<svg width="221" height="78" viewBox="0 0 221 78" fill="none" xmlns="http://www.w3.org/2000/svg">
<path d="M50.4023 33C50.7323 33 51 33.2677 51 33.5977V41.1328C50.9999 53.5404 44.7779 64.208 35.9141 68.4346C35.5214 68.6216 35.0675 68.3353 35.0674 67.9004V48.1807C35.0672 43.9447 31.7686 40.5108 27.6992 40.5107C23.6298 40.5107 20.3303 43.9447 20.3301 48.1807V68.085C20.3298 68.5142 19.8876 68.8 19.4961 68.624C10.4148 64.5347 4.00008 53.7299 4 41.1328V33.5977C4 33.2677 4.26769 33 4.59766 33C4.92753 33.0001 5.19531 33.2678 5.19531 33.5977V41.1328C5.19539 52.2252 10.3326 61.7516 17.7139 66.2852C18.3497 66.6757 19.1355 66.1983 19.1357 65.4521V48.1807C19.1359 43.2577 22.9699 39.2666 27.6992 39.2666C32.4286 39.2666 36.2625 43.2577 36.2627 48.1807V65.2021C36.263 65.9581 37.0674 66.4342 37.7021 66.0234C44.8601 61.3919 49.8046 52.0151 49.8047 41.1328V33.5977C49.8047 33.2678 50.0725 33.0001 50.4023 33ZM5.94824 11.8262C8.44129 8.5272 13.2691 9.46047 17.3555 10.0938C20.605 10.5973 24.5638 11.0829 27.6992 11.0732C30.7012 11.064 34.475 10.5963 37.6104 10.1074C41.7191 9.46671 46.5799 8.52652 49.0732 11.8545C50.2771 13.4615 51 15.606 51 17.9141V27.4023C51 27.7323 50.7323 28 50.4023 28C50.0725 27.9999 49.8047 27.7322 49.8047 27.4023V17.9141C49.8047 16.2685 49.4033 14.7694 48.7285 13.542C46.7249 9.89795 41.7185 10.71 37.6094 11.3506C34.476 11.839 30.7045 12.3072 27.6992 12.3174C24.564 12.328 20.6127 11.8438 17.3672 11.3408C13.273 10.7064 8.29006 9.89698 6.2832 13.5215C5.60147 14.7528 5.19533 16.2591 5.19531 17.9141V27.4023C5.19531 27.7322 4.92753 27.9999 4.59766 28C4.26769 28 4 27.7323 4 27.4023V17.9141C4.00003 15.5925 4.7316 13.4362 5.94824 11.8262Z" fill="black"/>
<path d="M50.4023 33C50.7323 33 51 33.2677 51 33.5977V41.1328C50.9999 53.5404 44.7779 64.208 35.9141 68.4346C35.5214 68.6216 35.0675 68.3353 35.0674 67.9004V48.1807C35.0672 43.9447 31.7686 40.5108 27.6992 40.5107C23.6298 40.5107 20.3303 43.9447 20.3301 48.1807V68.085C20.3298 68.5142 19.8876 68.8 19.4961 68.624C10.4148 64.5347 4.00008 53.7299 4 41.1328V33.5977C4 33.2677 4.26769 33 4.59766 33C4.92753 33.0001 5.19531 33.2678 5.19531 33.5977V41.1328C5.19539 52.2252 10.3326 61.7516 17.7139 66.2852C18.3497 66.6757 19.1355 66.1983 19.1357 65.4521V48.1807C19.1359 43.2577 22.9699 39.2666 27.6992 39.2666C32.4286 39.2666 36.2625 43.2577 36.2627 48.1807V65.2021C36.263 65.9581 37.0674 66.4342 37.7021 66.0234C44.8601 61.3919 49.8046 52.0151 49.8047 41.1328V33.5977C49.8047 33.2678 50.0725 33.0001 50.4023 33ZM5.94824 11.8262C8.44129 8.5272 13.2691 9.46047 17.3555 10.0938C20.605 10.5973 24.5638 11.0829 27.6992 11.0732C30.7012 11.064 34.475 10.5963 37.6104 10.1074C41.7191 9.46671 46.5799 8.52652 49.0732 11.8545C50.2771 13.4615 51 15.606 51 17.9141V27.4023C51 27.7323 50.7323 28 50.4023 28C50.0725 27.9999 49.8047 27.7322 49.8047 27.4023V17.9141C49.8047 16.2685 49.4033 14.7694 48.7285 13.542C46.7249 9.89795 41.7185 10.71 37.6094 11.3506C34.476 11.839 30.7045 12.3072 27.6992 12.3174C24.564 12.328 20.6127 11.8438 17.3672 11.3408C13.273 10.7064 8.29006 9.89698 6.2832 13.5215C5.60147 14.7528 5.19533 16.2591 5.19531 17.9141V27.4023C5.19531 27.7322 4.92753 27.9999 4.59766 28C4.26769 28 4 27.7323 4 27.4023V17.9141C4.00003 15.5925 4.7316 13.4362 5.94824 11.8262Z" stroke="black"/>
<g clip-path="url(#clip0_1637_230)">
<path d="M65.44 14.4H70.2V26.24H83.72V14.4H88.48V43H83.72V30.32H70.2V43H65.44V14.4ZM93.4497 14.4H98.2097V43H93.4497V14.4ZM102.721 30.88H113.481V34.8H102.721V30.88ZM121.671 43V18.44H112.511V14.4H135.551V18.44H126.431V43H121.671ZM143.559 26.2H157.519V30.28H143.559V38.96H159.879V43H138.799V14.4H159.479V18.44H143.559V26.2ZM183.094 24.24C182.574 21.36 180.694 17.88 175.414 17.88C169.254 17.88 166.814 23.04 166.814 28.68C166.814 34.36 169.254 39.52 175.414 39.52C180.734 39.52 182.774 36.04 183.094 32.56H187.854C187.214 39 182.814 43.6 175.534 43.6C167.294 43.6 162.094 37.32 162.094 28.68C162.094 20.08 167.294 13.8 175.534 13.8C182.774 13.8 187.174 18.4 187.854 24.24H183.094ZM191.378 14.4H196.138V26.24H209.658V14.4H214.418V43H209.658V30.32H196.138V43H191.378V14.4Z" fill="black"/>
<path d="M73.008 61.176C72.912 59.832 72 58.104 69.552 58.104C66.648 58.104 65.544 60.576 65.544 62.88C65.544 65.184 66.648 67.656 69.552 67.656C72.024 67.656 72.912 65.952 73.008 64.488H74.928C74.76 67.272 72.576 69.336 69.552 69.336C65.976 69.336 63.624 66.72 63.624 62.88C63.624 59.04 65.976 56.424 69.552 56.424C72.576 56.424 74.64 58.44 74.928 61.176H73.008ZM76.8373 51.84H78.7573V69H76.8373V51.84ZM82.4419 54.384C81.9139 54.384 81.2419 53.976 81.2419 53.232C81.2419 52.488 81.9139 52.08 82.4419 52.08C82.9939 52.08 83.6419 52.488 83.6419 53.232C83.6419 53.976 82.9939 54.384 82.4419 54.384ZM81.4819 56.76H83.4019V69H81.4819V56.76ZM92.2809 56.424C94.5129 56.424 96.3849 57.648 96.3849 60.456V69H94.4649V60.936C94.4649 59.352 93.7209 58.104 91.8009 58.104C89.6409 58.104 88.2009 59.472 88.2009 61.368V69H86.2809V56.76H88.2009V58.224H88.2489C88.8969 57.36 90.1929 56.424 92.2809 56.424ZM100.161 54.384C99.6326 54.384 98.9606 53.976 98.9606 53.232C98.9606 52.488 99.6326 52.08 100.161 52.08C100.713 52.08 101.361 52.488 101.361 53.232C101.361 53.976 100.713 54.384 100.161 54.384ZM99.2006 56.76H101.121V69H99.2006V56.76ZM112.688 61.176C112.592 59.832 111.68 58.104 109.232 58.104C106.328 58.104 105.224 60.576 105.224 62.88C105.224 65.184 106.328 67.656 109.232 67.656C111.704 67.656 112.592 65.952 112.688 64.488H114.608C114.44 67.272 112.256 69.336 109.232 69.336C105.656 69.336 103.304 66.72 103.304 62.88C103.304 59.04 105.656 56.424 109.232 56.424C112.256 56.424 114.32 58.44 114.608 61.176H112.688Z" fill="black"/>
</g>
<defs>
<clipPath id="clip0_1637_230">
<rect width="154" height="70" fill="white" transform="translate(63 4)"/>
</clipPath>
</defs>
</svg>
